<svg width="20" height="20" viewBox="0 0 20 20" fill="none" xmlns="http://www.w3.org/2000/svg">
<path fill-rule="evenodd" clip-rule="evenodd" d="M7.29892 4.16667H12.7011C13.3719 4.16666 13.9255 4.16665 14.3765 4.2035C14.8449 4.24177 15.2755 4.3239 15.68 4.52998C16.3072 4.84956 16.8171 5.35949 17.1367 5.9867C17.3428 6.39115 17.4249 6.82173 17.4632 7.29015C17.5 7.74114 17.5 8.29477 17.5 8.96557V12.7011C17.5 13.3719 17.5 13.9255 17.4632 14.3765C17.4249 14.8449 17.3428 15.2755 17.1367 15.68C16.8171 16.3072 16.3072 16.8171 15.68 17.1367C15.2755 17.3428 14.8449 17.4249 14.3765 17.4632C13.9255 17.5 13.3719 17.5 12.7011 17.5H7.29894C6.62812 17.5 6.07448 17.5 5.62348 17.4632C5.15506 17.4249 4.72448 17.3428 4.32003 17.1367C3.69283 16.8171 3.18289 16.3072 2.86331 15.68C2.65724 15.2755 2.5751 14.8449 2.53683 14.3765C2.49998 13.9255 2.49999 13.3719 2.5 12.7011V8.96559C2.49999 8.29478 2.49998 7.74114 2.53683 7.29015C2.5751 6.82173 2.65724 6.39115 2.86331 5.9867C3.18289 5.35949 3.69283 4.84956 4.32003 4.52998C4.72448 4.3239 5.15506 4.24177 5.62348 4.2035C6.07448 4.16665 6.62811 4.16666 7.29892 4.16667ZM5.7592 5.86463C5.39385 5.89448 5.20702 5.94858 5.07668 6.01499C4.76308 6.17478 4.50811 6.42975 4.34832 6.74335C4.28191 6.87368 4.22781 7.06052 4.19796 7.42587C4.16732 7.80094 4.16667 8.28619 4.16667 9V12.6667C4.16667 13.3805 4.16732 13.8657 4.19796 14.2408C4.22781 14.6062 4.28191 14.793 4.34832 14.9233C4.50811 15.2369 4.76308 15.4919 5.07668 15.6517C5.20702 15.7181 5.39385 15.7722 5.7592 15.802C6.13427 15.8327 6.61952 15.8333 7.33333 15.8333H12.6667C13.3805 15.8333 13.8657 15.8327 14.2408 15.802C14.6061 15.7722 14.793 15.7181 14.9233 15.6517C15.2369 15.4919 15.4919 15.2369 15.6517 14.9233C15.7181 14.793 15.7722 14.6062 15.802 14.2408C15.8327 13.8657 15.8333 13.3805 15.8333 12.6667V9C15.8333 8.28619 15.8327 7.80094 15.802 7.42587C15.7722 7.06052 15.7181 6.87368 15.6517 6.74335C15.4919 6.42975 15.2369 6.17478 14.9233 6.01499C14.793 5.94858 14.6061 5.89448 14.2408 5.86463C13.8657 5.83398 13.3805 5.83334 12.6667 5.83334H7.33333C6.61952 5.83334 6.13427 5.83398 5.7592 5.86463Z" fill="#000"/>
<path d="M7.50004 3.33333C7.50004 2.8731 7.12694 2.5 6.66671 2.5C6.20647 2.5 5.83337 2.8731 5.83337 3.33333V5C5.83337 5.46024 6.20647 5.83333 6.66671 5.83333C7.12694 5.83333 7.50004 5.46024 7.50004 5V3.33333Z" fill="#000"/>
<path d="M14.1667 3.33333C14.1667 2.8731 13.7936 2.5 13.3334 2.5C12.8731 2.5 12.5 2.8731 12.5 3.33333V5C12.5 5.46024 12.8731 5.83333 13.3334 5.83333C13.7936 5.83333 14.1667 5.46024 14.1667 5V3.33333Z" fill="#000"/>
<path d="M8.33333 7.5C7.8731 7.5 7.5 7.8731 7.5 8.33333C7.5 8.79357 7.8731 9.16667 8.33333 9.16667H9.16667V12.5H8.33333C7.8731 12.5 7.5 12.8731 7.5 13.3333C7.5 13.7936 7.8731 14.1667 8.33333 14.1667H11.6667C12.1269 14.1667 12.5 13.7936 12.5 13.3333C12.5 12.8731 12.1269 12.5 11.6667 12.5H10.8333V8.33333C10.8333 7.8731 10.4602 7.5 10 7.5H8.33333Z" fill="#000"/>
</svg>
