<svg width="20" height="20" viewBox="0 0 20 20" fill="none" xmlns="http://www.w3.org/2000/svg">
<path d="M9.99996 1.66667C5.41663 1.66667 1.66663 5.41667 1.66663 10C1.66663 14.5833 5.41663 18.3333 9.99996 18.3333C14.5833 18.3333 18.3333 14.5833 18.3333 10C18.3333 5.41667 14.5833 1.66667 9.99996 1.66667ZM9.99996 5.83334C11.4166 5.83334 12.5 6.91667 12.5 8.33334C12.5 9.75 11.4166 10.8333 9.99996 10.8333C8.58329 10.8333 7.49996 9.75 7.49996 8.33334C7.49996 6.91667 8.58329 5.83334 9.99996 5.83334ZM9.99996 16.6667C8.16663 16.6667 6.41663 15.9167 5.16663 14.5833C6.99996 11.9167 10.5833 11.25 13.25 13.0833C13.8333 13.5 14.3333 14 14.75 14.5833C13.5833 15.9167 11.8333 16.6667 9.99996 16.6667Z" fill="#000"/>
</svg>
