<svg width="24" height="24" viewBox="0 0 24 24" fill="none" xmlns="http://www.w3.org/2000/svg">
<path fill-rule="evenodd" clip-rule="evenodd" d="M2.2688 10.7399C3.13813 8.78756 5.89025 4 11.999 4C18.1079 4 20.8598 8.78782 21.729 10.7401C22.0873 11.5448 22.0873 12.4552 21.729 13.2599C20.8598 15.2122 18.1079 20 11.999 20C5.89025 20 3.13813 15.2124 2.2688 13.2601C1.9104 12.4552 1.9104 11.5448 2.2688 10.7399ZM11.9987 16C14.2079 16 15.9987 14.2091 15.9987 12C15.9987 9.79086 14.2079 8 11.9987 8C9.78958 8 7.99872 9.79086 7.99872 12C7.99872 14.2091 9.78958 16 11.9987 16Z" fill="#262E3D"/>
<path d="M10.5 12C11.3284 12 12 11.3284 12 10.5C12 10.3253 11.9701 10.1577 11.9153 10.0018C11.9434 10.0006 11.9716 10 12 10C13.1046 10 14 10.8954 14 12C14 13.1046 13.1046 14 12 14C10.8954 14 10 13.1046 10 12C10 11.9716 10.0006 11.9434 10.0018 11.9153C10.1577 11.9701 10.3253 12 10.5 12Z" fill="#262E3D"/>
</svg>
