<svg width="24" height="24" viewBox="0 0 24 24" fill="none" xmlns="http://www.w3.org/2000/svg">
<path d="M4 21C4 20.4477 4.44772 20 5 20H19C19.5523 20 20 20.4477 20 21C20 21.5523 19.5523 22 19 22H5C4.44772 22 4 21.5523 4 21Z" fill="#262E3D"/>
<path d="M11.9409 5.35348C11.7456 5.15822 11.429 5.15822 11.2338 5.35348L7.35507 9.23213C7.1598 9.42739 7.1598 9.74398 7.35507 9.93924L12.0622 14.6463C12.2574 14.8416 12.574 14.8416 12.7693 14.6463L16.648 10.7677C16.8432 10.5724 16.8432 10.2558 16.648 10.0606L11.9409 5.35348Z" fill="#262E3D"/>
<path d="M10.6426 16.4987C10.8068 16.453 10.8374 16.25 10.7169 16.1295L5.87191 11.2845C5.75141 11.164 5.54839 11.1946 5.50274 11.3588L4.04536 16.6016C3.81612 17.4263 4.57511 18.1853 5.39978 17.956L10.6426 16.4987Z" fill="#262E3D"/>
<path d="M13.7086 2.87867C14.8802 1.70711 16.7797 1.70711 17.9512 2.87868L19.1228 4.05025C20.2944 5.22183 20.2944 7.12134 19.1228 8.29291L18.7677 8.648C18.5724 8.84326 18.2558 8.84326 18.0606 8.648L13.3535 3.94089C13.1582 3.74563 13.1582 3.42904 13.3535 3.23378L13.7086 2.87867Z" fill="#262E3D"/>
</svg>
