<svg width="20" height="20" viewBox="0 0 20 20" fill="none" xmlns="http://www.w3.org/2000/svg">
<path fill-rule="evenodd" clip-rule="evenodd" d="M5.13451 3.33333H14.8654C15.3047 3.33332 15.6837 3.3333 15.9958 3.35881C16.3253 3.38573 16.653 3.44516 16.9683 3.60582C17.4387 3.8455 17.8211 4.22795 18.0608 4.69836C18.2215 5.01367 18.2809 5.34136 18.3078 5.67081C18.3333 5.98295 18.3333 6.36191 18.3333 6.80119V8.19881C18.3333 8.63809 18.3333 9.01705 18.3078 9.32919C18.2809 9.65864 18.2215 9.98633 18.0608 10.3016C17.8211 10.772 17.4387 11.1545 16.9683 11.3942C16.653 11.5548 16.3253 11.6143 15.9958 11.6412C15.6837 11.6667 15.3047 11.6667 14.8654 11.6667H13.3333V10H14.8333C15.3138 10 15.624 9.99935 15.8601 9.98006C16.0865 9.96156 16.1704 9.93017 16.2116 9.90917C16.3684 9.82928 16.4959 9.70179 16.5758 9.54499C16.5968 9.50379 16.6282 9.41986 16.6467 9.19347C16.666 8.95736 16.6666 8.64713 16.6666 8.16667V6.83333C16.6666 6.35287 16.666 6.04264 16.6467 5.80653C16.6282 5.58014 16.5968 5.49621 16.5758 5.45501C16.4959 5.29821 16.3684 5.17072 16.2116 5.09083C16.1704 5.06983 16.0865 5.03844 15.8601 5.01994C15.624 5.00065 15.3138 5 14.8333 5H5.16663C4.68617 5 4.37594 5.00065 4.13982 5.01994C3.91344 5.03844 3.82951 5.06983 3.7883 5.09083C3.6315 5.17072 3.50402 5.29821 3.42412 5.45501C3.40313 5.49621 3.37173 5.58014 3.35323 5.80653C3.33394 6.04264 3.33329 6.35287 3.33329 6.83333V8.16667C3.33329 8.64713 3.33394 8.95736 3.35323 9.19347C3.37173 9.41986 3.40313 9.50379 3.42412 9.54499C3.50402 9.70179 3.6315 9.82928 3.7883 9.90917C3.82951 9.93017 3.91344 9.96156 4.13982 9.98006C4.37594 9.99935 4.68617 10 5.16663 10H6.66663V11.6667H5.13453C4.69523 11.6667 4.31625 11.6667 4.0041 11.6412C3.67465 11.6143 3.34697 11.5548 3.03165 11.3942C2.56125 11.1545 2.17879 10.772 1.93911 10.3016C1.77845 9.98633 1.71902 9.65864 1.6921 9.32919C1.6666 9.01705 1.66661 8.63808 1.66663 8.19879V6.80121C1.66661 6.36192 1.6666 5.98295 1.6921 5.67081C1.71902 5.34136 1.77845 5.01367 1.93911 4.69836C2.17879 4.22795 2.56125 3.8455 3.03165 3.60582C3.34697 3.44516 3.67465 3.38573 4.0041 3.35881C4.31625 3.3333 4.69522 3.33332 5.13451 3.33333Z" fill="#000"/>
<path fill-rule="evenodd" clip-rule="evenodd" d="M5.83334 6.66667H5V7.5V13.1667V13.1988V13.1988C4.99999 13.6381 4.99997 14.0171 5.02548 14.3292C5.05239 14.6586 5.11182 14.9863 5.27249 15.3016C5.51217 15.772 5.89462 16.1545 6.36503 16.3942C6.68034 16.5548 7.00802 16.6143 7.33748 16.6412C7.64962 16.6667 8.02859 16.6667 8.46787 16.6667H8.4679H8.5H10H11.5H11.5321H11.5321C11.5506 16.6667 11.5689 16.6667 11.5872 16.6667H11.6667V16.6666C12.0492 16.6664 12.3827 16.6641 12.6625 16.6412C12.992 16.6143 13.3197 16.5548 13.635 16.3942C14.1054 16.1545 14.4878 15.772 14.7275 15.3016C14.8882 14.9863 14.9476 14.6586 14.9745 14.3292C15 14.0171 15 13.6381 15 13.1988V13.1988V13.1667V7.5V6.66667H14.1667H5.83334ZM11.6667 14.9999C12.0543 14.9996 12.3192 14.997 12.5268 14.9801C12.7532 14.9616 12.8371 14.9302 12.8783 14.9092C13.0351 14.8293 13.1626 14.7018 13.2425 14.545C13.2635 14.5038 13.2949 14.4199 13.3134 14.1935C13.3327 13.9574 13.3333 13.6471 13.3333 13.1667V8.33333H11.6667V14.9999ZM10 8.33333H6.66667V13.1667C6.66667 13.6471 6.66732 13.9574 6.68661 14.1935C6.7051 14.4199 6.7365 14.5038 6.7575 14.545C6.83739 14.7018 6.96487 14.8293 7.12168 14.9092C7.16288 14.9302 7.24681 14.9616 7.4732 14.9801C7.70931 14.9994 8.01954 15 8.5 15H10V8.33333Z" fill="#000"/>
</svg>
